<?xml version="1.0" encoding="utf-8"?>
<!-- Generator: Adobe Illustrator 16.0.0, SVG Export Plug-In . SVG Version: 6.00 Build 0)  -->
<!DOCTYPE svg PUBLIC "-//W3C//DTD SVG 1.1//EN" "http://www.w3.org/Graphics/SVG/1.1/DTD/svg11.dtd">
<svg version="1.1" id="图层_1" xmlns="http://www.w3.org/2000/svg" xmlns:xlink="http://www.w3.org/1999/xlink" x="0px" y="0px" fill="#fff"
	 width="406px" height="404px" viewBox="0 0 406 404" enable-background="new 0 0 406 404" xml:space="preserve">
<g>
	<path stroke="#000000" stroke-miterlimit="10" d="M203.482-0.099C91.39-0.099,0.521,90.292,0.521,201.794
		c0,111.502,90.869,201.893,202.961,201.893c112.093,0,202.963-90.391,202.963-201.893C406.445,90.292,315.575-0.099,203.482-0.099z
		 M203.482,374.294c-95.773,0-173.414-77.231-173.414-172.5c0-95.27,77.641-172.501,173.414-172.501
		c95.775,0,173.415,77.231,173.415,172.501C376.897,297.063,299.258,374.294,203.482,374.294z"/>
	<path stroke="#000000" stroke-miterlimit="10" d="M203.412,373.301"/>
	<path stroke="#000000" stroke-miterlimit="10" d="M203.412,28.299"/>
</g>
<polygon points="310,169 197,169 197,135.396 94.522,204.07 197,272.744 197,240 310,240 "/>
</svg>
