<?xml version="1.0" encoding="utf-8"?>
<!-- Generator: Adobe Illustrator 16.0.0, SVG Export Plug-In . SVG Version: 6.00 Build 0)  -->
<!DOCTYPE svg PUBLIC "-//W3C//DTD SVG 1.1//EN" "http://www.w3.org/Graphics/SVG/1.1/DTD/svg11.dtd">
<svg version="1.1" id="图层_1" xmlns="http://www.w3.org/2000/svg" xmlns:xlink="http://www.w3.org/1999/xlink" x="0px" y="0px" fill="#fff"
	 width="406px" height="404px" viewBox="0 0 406 404" enable-background="new 0 0 406 404" xml:space="preserve">
<g>
	<path stroke="#000000" stroke-miterlimit="10" d="M202.961-0.099C90.869-0.099,0,90.292,0,201.794
		c0,111.502,90.869,201.893,202.961,201.893c112.093,0,202.963-90.391,202.963-201.893C405.925,90.292,315.055-0.099,202.961-0.099z
		 M202.961,374.294c-95.773,0-173.414-77.231-173.414-172.5c0-95.27,77.641-172.501,173.414-172.501
		c95.776,0,173.416,77.231,173.416,172.501C376.377,297.063,298.737,374.294,202.961,374.294z"/>
	<path stroke="#000000" stroke-miterlimit="10" d="M203.412,373.301"/>
	<path stroke="#000000" stroke-miterlimit="10" d="M203.412,28.299"/>
</g>
<g>
	<path d="M266.055,255.239c-16.01,9.109-34.092,13.664-54.242,13.664c-23.187,0-41.872-7.332-56.053-21.997
		c-14.182-14.664-21.272-34.246-21.272-58.745c0-24.774,7.832-45.133,23.498-61.074c15.665-15.941,35.747-23.912,60.246-23.912
		c17.322,0,31.986,2.761,43.994,8.281v22.359c-12.836-8.074-28.121-12.111-45.857-12.111c-17.459,0-31.848,5.97-43.166,17.908
		c-11.318,11.94-16.977,27.674-16.977,47.203c0,20.082,5.21,35.713,15.631,46.893c10.42,11.18,24.498,16.77,42.234,16.77
		c12.215,0,22.602-2.345,31.158-7.039v-43.373h-34.781v-18.322h55.588V255.239z"/>
</g>
</svg>
