<?xml version="1.0" encoding="utf-8"?>
<!-- Generator: Adobe Illustrator 16.0.0, SVG Export Plug-In . SVG Version: 6.00 Build 0)  -->
<!DOCTYPE svg PUBLIC "-//W3C//DTD SVG 1.1//EN" "http://www.w3.org/Graphics/SVG/1.1/DTD/svg11.dtd">
<svg version="1.1" id="图层_1" xmlns="http://www.w3.org/2000/svg" xmlns:xlink="http://www.w3.org/1999/xlink" x="0px" y="0px" fill="#fff"
	 width="406px" height="404px" viewBox="0 0 406 404" enable-background="new 0 0 406 404" xml:space="preserve">
<g>
	<path stroke="#000000" stroke-miterlimit="10" d="M202.961-0.099C90.869-0.099,0,90.292,0,201.794
		c0,111.502,90.869,201.893,202.961,201.893c112.093,0,202.963-90.391,202.963-201.893C405.925,90.292,315.055-0.099,202.961-0.099z
		 M202.961,374.294c-95.773,0-173.414-77.231-173.414-172.5c0-95.27,77.641-172.501,173.414-172.501
		c95.776,0,173.416,77.231,173.416,172.501C376.377,297.063,298.737,374.294,202.961,374.294z"/>
	<path stroke="#000000" stroke-miterlimit="10" d="M203.412,373.301"/>
	<path stroke="#000000" stroke-miterlimit="10" d="M203.412,28.299"/>
</g>
<path stroke="#000000" stroke-miterlimit="10" d="M91.108,123.752l19.764,4.856l9.881,22.264l25.041,4.933l12.706-16.142v-25.625
	l-23.125-9.707l-4.837-21.075c0,0,78.988,1.291,61.104,72.548l118.437,112.168l4.946,16.735l-22.813,23.556l-20.35-5.579
	L165.084,183.896C165.084,183.896,87.995,207.45,91.108,123.752z"/>
</svg>
